<svg width="1440" height="1400" viewBox="0 0 1440 1400" fill="none" xmlns="http://www.w3.org/2000/svg">
<g filter="url(#filter0_f_1_1363)">
<circle cx="715" cy="700" r="500" fill="url(#paint0_radial_1_1363)" fill-opacity="0.6"/>
</g>
<g style="mix-blend-mode:overlay">
<path d="M605.279 427.903C395.378 448.854 239.688 525.748 239.688 617.4C239.688 725.169 454.953 812.534 720.496 812.534C986.039 812.534 1201.3 725.169 1201.3 617.4C1201.3 522.782 1035.38 443.893 815.171 426.047" stroke="url(#paint1_angular_1_1363)" stroke-width="1.70856" stroke-linecap="round"/>
</g>
<g style="mix-blend-mode:overlay">
<path d="M605.279 429.278C395.378 450.228 239.688 527.122 239.688 618.774C239.688 726.544 454.953 813.909 720.496 813.909C986.039 813.909 1201.3 726.544 1201.3 618.774C1201.3 524.156 1035.38 445.267 815.171 427.421" stroke="url(#paint2_angular_1_1363)" stroke-width="1.70856" stroke-linecap="round"/>
</g>
<g style="mix-blend-mode:overlay">
<path d="M831.515 432.303C1043.53 452.641 1201.3 529.948 1201.3 622.21C1201.3 729.98 986.039 817.345 720.496 817.345C454.953 817.345 239.688 729.98 239.688 622.21C239.688 532.067 390.294 456.2 594.956 433.794" stroke="url(#paint3_angular_1_1363)" stroke-width="1.70856" stroke-linecap="round"/>
</g>
<g style="mix-blend-mode:overlay">
<path d="M578.612 441.209C382.326 465.776 239.688 539.982 239.688 627.708C239.688 735.478 454.953 822.842 720.496 822.842C986.039 822.842 1201.3 735.478 1201.3 627.708C1201.3 537.138 1049.27 460.98 843.128 438.977" stroke="url(#paint4_angular_1_1363)" stroke-width="1.70856" stroke-linecap="round"/>
</g>
<g style="mix-blend-mode:overlay">
<path d="M860.762 448.566C1057.88 472.928 1201.3 547.3 1201.3 635.267C1201.3 743.037 986.039 830.401 720.496 830.401C454.953 830.401 239.688 743.037 239.688 635.267C239.688 550.19 373.841 477.83 560.978 451.128" stroke="url(#paint5_angular_1_1363)" stroke-width="1.70856" stroke-linecap="round"/>
</g>
<g style="mix-blend-mode:overlay">
<path d="M498.264 282.615C130.695 322.35 -141.944 468.188 -141.944 642.017C-141.944 846.415 235.019 1012.11 700.028 1012.11C1165.04 1012.11 1542 846.415 1542 642.017C1542 462.563 1251.43 312.941 865.819 279.094" stroke="url(#paint6_angular_1_1363)" stroke-width="2.97033" stroke-linecap="round"/>
</g>
<g style="mix-blend-mode:overlay">
<path d="M498.264 285.221C130.695 324.956 -141.944 470.795 -141.944 644.623C-141.944 849.022 235.019 1014.72 700.028 1014.72C1165.04 1014.72 1542 849.022 1542 644.623C1542 465.17 1251.43 315.548 865.819 281.7" stroke="url(#paint7_angular_1_1363)" stroke-width="2.97033" stroke-linecap="round"/>
</g>
<g style="mix-blend-mode:overlay">
<path d="M894.44 290.959C1265.72 329.533 1542 476.155 1542 651.141C1542 855.539 1165.04 1021.24 700.028 1021.24C235.019 1021.24 -141.944 855.539 -141.944 651.141C-141.944 480.174 121.791 336.283 480.187 293.787" stroke="url(#paint8_angular_1_1363)" stroke-width="2.97033" stroke-linecap="round"/>
</g>
<g style="mix-blend-mode:overlay">
<path d="M451.566 307.85C107.838 354.446 -141.944 495.185 -141.944 661.567C-141.944 865.966 235.019 1031.66 700.028 1031.66C1165.04 1031.66 1542 865.966 1542 661.567C1542 489.792 1275.76 345.349 914.776 303.618" stroke="url(#paint9_angular_1_1363)" stroke-width="2.97033" stroke-linecap="round"/>
</g>
<g style="mix-blend-mode:overlay">
<path d="M945.656 321.805C1290.84 368.01 1542 509.064 1542 675.904C1542 880.302 1165.04 1046 700.028 1046C235.019 1046 -141.944 880.302 -141.944 675.904C-141.944 514.546 92.979 377.306 420.686 326.663" stroke="url(#paint10_angular_1_1363)" stroke-width="2.97033" stroke-linecap="round"/>
</g>
<defs>
<filter id="filter0_f_1_1363" x="15" y="0" width="1400" height="1400" filterUnits="userSpaceOnUse" color-interpolation-filters="sRGB">
<feFlood flood-opacity="0" result="BackgroundImageFix"/>
<feBlend mode="normal" in="SourceGraphic" in2="BackgroundImageFix" result="shape"/>
<feGaussianBlur stdDeviation="100" result="effect1_foregroundBlur_1_1363"/>
</filter>
<radialGradient id="paint0_radial_1_1363" cx="0" cy="0" r="1" gradientUnits="userSpaceOnUse" gradientTransform="translate(680 785) rotate(89.2284) scale(594.054)">
<stop stop-color="#2954A3"/>
<stop offset="1" stop-color="#0F103F"/>
</radialGradient>
<radialGradient id="paint1_angular_1_1363" cx="0" cy="0" r="1" gradientUnits="userSpaceOnUse" gradientTransform="translate(727.433 636.129) scale(512.3 204.449)">
<stop offset="0.458333" stop-color="white"/>
<stop offset="0.717799" stop-color="white" stop-opacity="0"/>
<stop offset="0.782437" stop-color="white" stop-opacity="0"/>
<stop offset="1" stop-color="white" stop-opacity="0.4"/>
</radialGradient>
<radialGradient id="paint2_angular_1_1363" cx="0" cy="0" r="1" gradientUnits="userSpaceOnUse" gradientTransform="translate(727.433 637.504) scale(512.3 204.449)">
<stop offset="0.458333" stop-color="white"/>
<stop offset="0.717799" stop-color="white" stop-opacity="0"/>
<stop offset="0.782437" stop-color="white" stop-opacity="0"/>
<stop offset="1" stop-color="white" stop-opacity="0.4"/>
</radialGradient>
<radialGradient id="paint3_angular_1_1363" cx="0" cy="0" r="1" gradientUnits="userSpaceOnUse" gradientTransform="translate(727.433 641.6) scale(512.3 203.685)">
<stop offset="0.458333" stop-color="white"/>
<stop offset="0.717799" stop-color="white" stop-opacity="0"/>
<stop offset="0.782437" stop-color="white" stop-opacity="0"/>
<stop offset="1" stop-color="white" stop-opacity="0.4"/>
</radialGradient>
<radialGradient id="paint4_angular_1_1363" cx="0" cy="0" r="1" gradientUnits="userSpaceOnUse" gradientTransform="translate(727.433 647.634) scale(512.3 203.062)">
<stop offset="0.458333" stop-color="white"/>
<stop offset="0.717799" stop-color="white" stop-opacity="0"/>
<stop offset="0.782437" stop-color="white" stop-opacity="0"/>
<stop offset="1" stop-color="white" stop-opacity="0.4"/>
</radialGradient>
<radialGradient id="paint5_angular_1_1363" cx="0" cy="0" r="1" gradientUnits="userSpaceOnUse" gradientTransform="translate(727.433 656.12) scale(512.3 201.988)">
<stop offset="0.458333" stop-color="white"/>
<stop offset="0.717799" stop-color="white" stop-opacity="0"/>
<stop offset="0.782437" stop-color="white" stop-opacity="0"/>
<stop offset="1" stop-color="white" stop-opacity="0.4"/>
</radialGradient>
<radialGradient id="paint6_angular_1_1363" cx="0" cy="0" r="1" gradientUnits="userSpaceOnUse" gradientTransform="translate(712.175 677.54) scale(897.119 387.762)">
<stop offset="0.458333" stop-color="white"/>
<stop offset="0.717799" stop-color="white" stop-opacity="0"/>
<stop offset="0.782437" stop-color="white" stop-opacity="0"/>
<stop offset="1" stop-color="white" stop-opacity="0.4"/>
</radialGradient>
<radialGradient id="paint7_angular_1_1363" cx="0" cy="0" r="1" gradientUnits="userSpaceOnUse" gradientTransform="translate(712.175 680.146) scale(897.119 387.762)">
<stop offset="0.458333" stop-color="white"/>
<stop offset="0.717799" stop-color="white" stop-opacity="0"/>
<stop offset="0.782437" stop-color="white" stop-opacity="0"/>
<stop offset="1" stop-color="white" stop-opacity="0.4"/>
</radialGradient>
<radialGradient id="paint8_angular_1_1363" cx="0" cy="0" r="1" gradientUnits="userSpaceOnUse" gradientTransform="translate(712.175 687.915) scale(897.119 386.312)">
<stop offset="0.458333" stop-color="white"/>
<stop offset="0.717799" stop-color="white" stop-opacity="0"/>
<stop offset="0.782437" stop-color="white" stop-opacity="0"/>
<stop offset="1" stop-color="white" stop-opacity="0.4"/>
</radialGradient>
<radialGradient id="paint9_angular_1_1363" cx="0" cy="0" r="1" gradientUnits="userSpaceOnUse" gradientTransform="translate(712.175 699.36) scale(897.119 385.131)">
<stop offset="0.458333" stop-color="white"/>
<stop offset="0.717799" stop-color="white" stop-opacity="0"/>
<stop offset="0.782437" stop-color="white" stop-opacity="0"/>
<stop offset="1" stop-color="white" stop-opacity="0.4"/>
</radialGradient>
<radialGradient id="paint10_angular_1_1363" cx="0" cy="0" r="1" gradientUnits="userSpaceOnUse" gradientTransform="translate(712.175 715.454) scale(897.119 383.095)">
<stop offset="0.458333" stop-color="white"/>
<stop offset="0.717799" stop-color="white" stop-opacity="0"/>
<stop offset="0.782437" stop-color="white" stop-opacity="0"/>
<stop offset="1" stop-color="white" stop-opacity="0.4"/>
</radialGradient>
</defs>
</svg>
