<svg width="654" height="740" viewBox="0 0 654 740" fill="none" xmlns="http://www.w3.org/2000/svg">
<path fill-rule="evenodd" clip-rule="evenodd" d="M376.699 572.909C374.94 516.349 337.131 397.124 331.7 366.417C326.27 335.71 345.587 325.31 364.109 330.376C382.631 335.444 388.172 406.293 388.172 406.293C388.172 406.293 389.448 420.16 394.282 435.95C411.758 493.034 399.492 573.721 399.492 573.721C399.492 573.721 396.105 578.977 385.852 578.277C375.601 577.577 376.699 572.909 376.699 572.909Z" fill="#FFC999"/>
<path fill-rule="evenodd" clip-rule="evenodd" d="M398.814 575.317C399.045 575.896 402.529 555.189 402.36 549.083C387.904 550.164 374.538 549.392 374.538 549.392C374.538 549.392 376.446 573.002 375.902 575.317C386.266 578.866 398.814 575.317 398.814 575.317Z" fill="#597EF7"/>
<path fill-rule="evenodd" clip-rule="evenodd" d="M395.844 603.335C394.049 611.52 386.266 615.851 378.236 616.33C368.294 616.924 357.466 615.338 355.717 610.296C353.721 604.54 358.955 601.595 364.807 593.365C370.656 585.133 373.448 578.095 375.628 572.23C375.628 572.23 383.086 569.762 381.085 576.86C379.464 582.607 375.536 598.774 368.627 599.904C375.356 599.597 389.177 602.58 389.177 602.58C389.177 602.58 384.266 598.259 384.63 596.818C384.994 595.379 389.058 580.621 389.267 576.243C389.474 571.914 396.114 572.436 399.314 572.943C400.31 573.1 400.945 573.644 400.824 574.225C400.519 575.668 396.695 599.46 395.844 603.335Z" fill="#4E5C93"/>
<path fill-rule="evenodd" clip-rule="evenodd" d="M392.269 581.644C392.269 581.644 400.563 571.82 392.269 570.842C385.722 570.07 379.449 569.916 378.63 570.842C378.326 571.187 378.356 574.391 376.176 581.027C373.628 588.773 367.115 597.859 364.718 599.7C360.9 602.631 364.992 602.786 374.266 604.175C383.539 605.563 386.812 605.563 389.268 602.786C391.723 600.008 391.723 587.662 392.269 581.644Z" fill="#4E5C93"/>
<path d="M375 584.378C375.194 584.096 375.755 583.956 376.254 584.066C377.483 584.336 378.818 584.705 380.245 585.16C381.596 585.592 383.011 586.095 384.47 586.655C386.209 587.324 387.921 588.04 389.532 588.756L390.183 589.048C390.392 589.142 390.591 589.233 390.781 589.32L391.623 589.715C392.36 590.069 391.823 590.749 390.864 590.675C389.027 590.533 386.814 590.603 384.311 590.859C382.032 591.091 379.594 591.468 377.095 591.95C376.171 592.128 375.273 592.314 374.411 592.502L373.817 592.635L374.186 592.7C376.997 593.218 379.855 594.123 382.7 595.32L383.202 595.534C384.86 596.252 386.4 597.021 387.784 597.789L388.34 598.103C388.428 598.154 388.514 598.203 388.598 598.252L389.073 598.534C389.299 598.671 389.457 598.77 389.542 598.824C389.894 599.052 389.853 599.398 389.451 599.598C389.048 599.797 388.436 599.774 388.084 599.546L387.778 599.355L387.659 599.284C387.304 599.069 386.892 598.83 386.427 598.571C385.096 597.833 383.615 597.093 382.024 596.405C378.094 594.703 374.17 593.594 370.515 593.351C369.547 593.287 369.334 592.546 370.215 592.311L370.693 592.188L371.639 591.956C371.754 591.928 371.872 591.9 371.993 591.871C373.378 591.544 374.887 591.218 376.471 590.912C379.055 590.414 381.583 590.023 383.967 589.78C385.173 589.657 386.322 589.574 387.409 589.534L388.099 589.514L387.378 589.198C386.409 588.778 385.41 588.362 384.397 587.959L383.381 587.562C381.964 587.017 380.594 586.53 379.293 586.115C377.941 585.683 376.687 585.337 375.552 585.087C375.053 584.977 374.806 584.66 375 584.378Z" fill="#CCD7EE"/>
<path d="M384.477 585.412C387.062 585.236 389.33 585.245 391.204 585.481C391.726 585.547 392.055 585.839 391.939 586.135C391.823 586.43 391.306 586.616 390.784 586.551C389.156 586.346 387.095 586.338 384.708 586.5C382.736 586.635 380.622 586.88 378.462 587.203C377.743 587.311 377.046 587.424 376.379 587.538L376.193 587.57L376.499 587.652C378.739 588.267 380.918 589.045 383.022 589.954L383.651 590.23C385.646 591.123 387.452 592.078 389.039 593.034C389.485 593.302 389.887 593.555 390.246 593.789L390.734 594.115C390.869 594.207 390.968 594.277 391.031 594.322C391.503 594.666 391.11 595.158 390.377 595.203L390.208 595.206L390.008 595.204C388.808 595.197 387.225 595.207 385.401 595.252C382.675 595.318 379.986 595.447 377.478 595.654C373.075 596.017 369.624 596.588 367.529 597.378C367.084 597.546 366.483 597.478 366.186 597.226C365.89 596.974 366.01 596.634 366.455 596.466C368.845 595.564 372.534 594.954 377.199 594.57C379.778 594.357 382.53 594.225 385.317 594.157L386.404 594.134C386.756 594.127 387.097 594.122 387.426 594.118L388.159 594.11L387.94 593.974L387.628 593.784C386.102 592.866 384.364 591.947 382.45 591.09C379.465 589.754 376.331 588.697 373.111 588.022C372.268 587.846 372.268 587.172 373.109 586.995L373.951 586.828C374.119 586.796 374.297 586.762 374.485 586.727C375.556 586.528 376.729 586.33 377.965 586.144C380.206 585.808 382.406 585.553 384.477 585.412Z" fill="#CCD7EE"/>
<path fill-rule="evenodd" clip-rule="evenodd" d="M394.995 604.947C394.995 604.947 375.356 595.687 357.353 602.477C352.852 608.153 355.456 611.527 357.627 613.279C358.525 614.004 360.227 615.016 361.698 615.316C366.082 616.211 377.576 618.009 385.721 614.977C396.085 611.119 394.995 604.947 394.995 604.947Z" fill="#CCD7EE"/>
<path d="M358.171 602.546C358.305 602.404 358.617 602.351 358.867 602.426C359.118 602.502 359.213 602.678 359.079 602.82C356.827 605.21 359.263 608.403 362.549 609.642C364.951 610.547 374.003 611.424 381.151 611.24C384.404 611.156 387.074 609.993 389.199 608.086C389.983 607.382 390.636 606.626 391.161 605.87C391.345 605.605 391.499 605.36 391.626 605.14L391.772 604.87C391.848 604.715 392.131 604.623 392.405 604.666C392.679 604.708 392.84 604.869 392.765 605.024L392.649 605.241L392.604 605.32C392.472 605.55 392.31 605.807 392.119 606.083C391.571 606.871 390.891 607.659 390.069 608.396C387.782 610.449 384.848 611.728 381.198 611.821C373.851 612.011 364.6 611.115 361.978 610.126C358.298 608.739 355.631 605.242 358.171 602.546Z" fill="#A3B5D6"/>
<path d="M401.339 552.251C401.862 552.188 402.377 552.376 402.489 552.672C402.601 552.968 402.268 553.259 401.745 553.322L401.404 553.362C401.131 553.392 400.814 553.426 400.454 553.462L399.383 553.564C398.64 553.633 397.839 553.7 396.987 553.764C390.561 554.246 383.883 554.377 377.622 553.94C376.989 553.896 376.365 553.846 375.749 553.791C375.221 553.743 374.861 553.462 374.945 553.163C375.03 552.864 375.527 552.661 376.055 552.708C376.647 552.762 377.249 552.81 377.859 552.853C383.934 553.276 390.456 553.148 396.732 552.677C397.774 552.599 398.735 552.516 399.605 552.433L400.115 552.383C400.711 552.323 401.126 552.277 401.339 552.251Z" fill="#CCD7EE"/>
<path d="M384.776 579.297C385.222 579.288 385.608 579.45 385.736 579.679L385.752 579.721L385.838 579.734L385.96 579.762L386.646 579.953L387.501 580.198C387.8 580.285 388.112 580.377 388.436 580.474C390.287 581.025 392.139 581.614 393.871 582.217C395.559 582.806 397.045 583.377 398.274 583.924C399.896 584.644 401.043 585.306 401.65 585.921C402.464 586.745 402.315 587.542 401.041 588.096C398.938 589.012 396.145 588.359 392.823 586.649C391.591 586.015 390.3 585.24 388.973 584.354C387.66 583.479 386.381 582.542 385.186 581.606L384.879 581.364L384.264 580.869L383.485 581.241C382.242 581.826 380.921 582.411 379.577 582.958C378.434 583.422 377.325 583.839 376.265 584.195L375.649 584.397C370.981 585.89 367.575 586.067 366.436 584.133C365.148 581.947 368.994 580.649 375.812 579.89C377.776 579.671 379.874 579.513 381.971 579.406L383.029 579.357L383.997 579.32C384.366 579.307 384.631 579.3 384.776 579.297ZM387.279 581.368L387.466 581.512C388.425 582.242 389.429 582.964 390.45 583.646C391.728 584.498 392.963 585.24 394.127 585.839C396.804 587.217 398.809 587.685 399.86 587.228C400.302 587.036 400.338 586.84 399.958 586.455C399.504 585.995 398.515 585.424 397.078 584.786C395.913 584.268 394.485 583.719 392.855 583.15C391.502 582.679 390.07 582.215 388.622 581.772L387.533 581.443L387.279 581.368ZM382.016 580.505L381.128 580.554C379.437 580.654 377.762 580.79 376.186 580.965L375.391 581.058C370.221 581.694 367.601 582.643 368.274 583.786C368.863 584.786 371.266 584.601 375.275 583.253C376.283 582.914 377.347 582.515 378.446 582.068C379.489 581.644 380.521 581.194 381.511 580.74L382.016 580.505Z" fill="#CCD7EE"/>
<path d="M392.901 574.36C393.389 574.385 393.76 574.611 393.781 574.881L393.778 574.955L393.05 579.482C393.001 579.783 392.53 580.005 391.998 579.978C391.509 579.953 391.139 579.727 391.118 579.457L391.121 579.383L391.849 574.856C391.893 574.58 392.293 574.37 392.769 574.358L392.901 574.36Z" fill="#CCD7EE"/>
<path d="M380.172 572.92C380.66 572.945 381.031 573.171 381.052 573.441L381.049 573.515L380.321 578.042C380.272 578.343 379.801 578.565 379.268 578.538C378.78 578.513 378.409 578.287 378.388 578.017L378.392 577.943L379.12 573.416C379.164 573.14 379.564 572.93 380.04 572.918L380.172 572.92Z" fill="#CCD7EE"/>
<path fill-rule="evenodd" clip-rule="evenodd" d="M268.278 570.44C270.036 513.88 307.845 394.655 313.275 363.948C318.707 333.24 299.388 322.841 280.868 327.907C262.346 332.975 256.803 403.824 256.803 403.824C256.803 403.824 255.528 417.69 250.694 433.481C233.218 490.566 245.485 571.252 245.485 571.252C245.485 571.252 248.872 576.508 259.125 575.808C269.374 575.108 268.278 570.44 268.278 570.44Z" fill="#FFC999"/>
<path fill-rule="evenodd" clip-rule="evenodd" d="M279.491 315.87L280.725 311.637C280.725 311.637 314.054 311.653 353.825 311.792C354.097 313.951 355.189 316.576 355.189 316.576C355.189 316.576 326.453 322.028 279.491 315.87Z" fill="#002AB2"/>
<path fill-rule="evenodd" clip-rule="evenodd" d="M360.303 285.605L357.503 289.652C357.503 289.652 356.735 309.643 356.735 311.226C318.547 314.723 279.876 310.952 279.876 310.952L280.064 303.553L276.954 280.855L360.303 285.605Z" fill="white"/>
<path d="M359.724 285.301C359.849 285.12 360.209 285.031 360.529 285.102C360.813 285.165 360.97 285.333 360.913 285.497L360.882 285.558L358.121 289.547L357.008 310.857C356.998 311.132 356.993 311.325 356.993 311.431C356.993 311.601 356.779 311.746 356.484 311.777C334.456 314.089 311.914 313.961 291.179 312.357C288.222 312.128 285.537 311.885 283.157 311.64L282.375 311.558C281.625 311.478 280.953 311.403 280.361 311.334L279.192 311.193C278.934 311.159 278.746 311.038 278.715 310.894L278.711 310.831L279.443 303.357C279.462 303.163 279.755 303.014 280.098 303.025C280.403 303.034 280.644 303.166 280.681 303.332L280.684 303.395L279.981 310.57L280.271 310.605C280.713 310.658 281.207 310.714 281.751 310.774L282.605 310.866C285.154 311.137 288.082 311.407 291.347 311.66C311.513 313.22 333.402 313.376 354.83 311.232L355.754 311.136L355.855 308.785L356.366 298.917L356.882 289.465L356.924 289.348L359.724 285.301Z" fill="black"/>
<path fill-rule="evenodd" clip-rule="evenodd" d="M398.314 211.022C398.314 211.022 417.124 209.478 422.094 220.727C440.319 224.476 435.349 235.724 435.349 235.724C435.349 235.724 444.501 244.56 426.319 249.087C424.862 258.141 406.679 256.494 406.679 256.494C406.679 256.494 402.315 263.49 388.494 260.61C373.584 267.171 355.819 259.158 355.819 259.158C355.819 259.158 339.251 262.908 332.625 259.158C317.713 261.97 301.143 251.659 301.143 251.659C301.143 251.659 291.835 252.997 285.208 244.56C267.897 246.08 248.984 233.598 264.841 221.927C254.439 212.611 266.295 207.112 266.295 207.112C266.295 207.112 263.022 185.713 289.208 182.833C302.663 171.31 331.759 180.57 331.759 180.57C331.759 180.57 351.034 178.306 357.946 187.772C379.483 189.646 378.474 196.344 380.131 201.969C399.404 202.585 398.314 211.022 398.314 211.022Z" fill="black"/>
<path fill-rule="evenodd" clip-rule="evenodd" d="M338.549 200.573C323.445 202.072 318.857 195.608 318.857 195.608C318.857 195.608 312.626 186.502 311.03 192.092C310.181 195.063 302.063 191.121 298.33 194.288C295.818 196.419 302.099 199.166 293.937 204.849C289.208 208.141 307.859 210.768 296.353 216.836C296.353 216.836 304.534 224.243 290.48 226.659L287.373 235.284L319.761 235.255L318.719 225.324C340.54 225.324 341.605 208.355 338.549 200.573Z" fill="#FFC999"/>
<path d="M310.707 209.606C311.085 209.392 311.699 209.392 312.077 209.606L312.275 209.708C312.365 209.753 312.48 209.807 312.618 209.869C313.092 210.08 313.648 210.293 314.28 210.492C316.423 211.166 318.869 211.515 321.561 211.367C322.093 211.338 322.566 211.559 322.618 211.86C322.67 212.161 322.28 212.429 321.748 212.458C318.633 212.629 315.804 212.226 313.339 211.45C312.088 211.056 311.198 210.659 310.707 210.381C310.329 210.167 310.329 209.82 310.707 209.606Z" fill="#F5222D"/>
<path d="M322.623 201.04C323.006 201.055 323.304 201.226 323.337 201.436L323.338 201.512C323.32 201.801 323.421 202.287 323.758 202.947C324.301 204.01 325.317 205.204 326.924 206.507C327.177 206.712 327.075 206.994 326.701 207.127L325.699 207.479C324.401 207.931 323.256 208.31 322.261 208.623L321.895 208.737C321.617 208.823 321.364 208.899 321.135 208.967L320.352 209.191C320.332 209.196 320.316 209.201 320.301 209.204C319.914 209.305 319.455 209.21 319.277 208.991C319.098 208.772 319.267 208.512 319.654 208.411L320.013 208.311L320.649 208.124C320.807 208.077 320.975 208.026 321.154 207.97C322.077 207.685 323.145 207.336 324.362 206.917L325.2 206.625L325.009 206.46C323.776 205.377 322.926 204.361 322.399 203.422L322.274 203.19C321.926 202.507 321.795 201.967 321.792 201.589L321.798 201.445C321.828 201.204 322.198 201.023 322.623 201.04Z" fill="#DD936F"/>
<path fill-rule="evenodd" clip-rule="evenodd" d="M325.73 303.613C325.73 303.613 367.127 309.824 386.012 302.378C406.538 294.285 381.402 263.489 374.828 255.465C369.185 248.576 356.882 244.112 345.685 243.056C334.668 242.017 326.249 241.648 326.249 241.648L323.829 236.312C323.477 235.535 322.239 234.991 320.821 234.991H287.816C286.27 234.991 284.961 235.635 284.741 236.5L283.466 241.554C283.466 241.554 255.684 240.964 242.535 247.853C229.941 254.451 233.579 269.259 244.144 282.966C254.707 296.674 263.605 307.552 281.269 308.551C313.923 310.398 364.968 294.314 364.968 294.314C364.968 294.314 373.674 291.676 381.762 292.379C379.896 286.045 373.674 281.47 355.637 284.11L291.261 291.676" fill="white"/>
<path fill-rule="evenodd" clip-rule="evenodd" d="M365.278 273.113C365.278 273.113 368.39 278.919 361.936 283.625L362.636 289.696L316.918 303.685C316.918 303.685 366.675 310.174 386.557 303.613C401.47 298.692 397.183 284.694 385.739 270.588C385.739 270.588 376.738 269.046 365.278 273.113Z" fill="#FFC999"/>
<path fill-rule="evenodd" clip-rule="evenodd" d="M275.71 274.697L288.461 290.356L339.459 282.523C354.699 280.235 370.876 283.494 374.919 290.356C367.456 290.884 353.305 292.731 353.305 292.731C353.305 292.731 304.324 310.018 279.597 309.359C261.865 308.885 254.965 297.201 244.4 283.494C244.4 283.494 250.83 275.752 275.71 274.697Z" fill="#FFC999"/>
<path d="M358.748 257.981C359.091 257.981 359.369 258.139 359.369 258.333L359.36 258.823L359.34 259.309C359.328 259.561 359.312 259.828 359.291 260.107C359.21 261.214 359.074 262.321 358.873 263.379L358.778 263.838L359.067 264.007C361.024 265.179 362.585 266.425 363.774 267.735L364.063 268.064C367.57 272.176 367.341 276.556 364.857 280.69C364.458 281.353 364.031 281.952 363.603 282.477L363.386 282.737L363.022 283.139C362.854 283.308 362.475 283.368 362.176 283.273C361.876 283.178 361.77 282.964 361.938 282.794L362.116 282.604C362.213 282.495 362.335 282.354 362.474 282.182C362.884 281.679 363.295 281.103 363.679 280.464C366.068 276.489 366.288 272.291 362.943 268.37C361.689 266.899 359.949 265.508 357.684 264.21C357.551 264.134 357.486 264.027 357.51 263.92C357.779 262.699 357.952 261.388 358.049 260.078L358.097 259.29L358.125 258.444L358.126 258.333C358.126 258.139 358.404 257.981 358.748 257.981Z" fill="black"/>
<path d="M312.977 241.465C313.32 241.465 313.599 241.623 313.599 241.817C313.599 241.99 313.379 242.133 313.089 242.163L312.977 242.169H283.258C282.914 242.169 282.636 242.011 282.636 241.817C282.636 241.644 282.856 241.501 283.146 241.471L283.258 241.465H312.977Z" fill="black"/>
<path d="M326.944 241.516C327.044 241.296 327.44 241.164 327.829 241.22C328.178 241.271 328.403 241.458 328.371 241.655L328.351 241.72L318.554 263.274C318.422 263.566 317.809 263.674 317.409 263.498L317.321 263.453L281.712 241.899C281.438 241.733 281.453 241.473 281.746 241.318C282.007 241.18 282.399 241.172 282.675 241.288L282.773 241.338L317.476 262.344L326.944 241.516Z" fill="black"/>
<path fill-rule="evenodd" clip-rule="evenodd" d="M328.163 265.572C331.458 268.717 329.972 272.66 324.846 274.381C319.717 276.101 312.888 274.945 309.593 271.802C306.297 268.657 307.782 264.714 312.909 262.993C318.039 261.273 324.865 262.428 328.163 265.572Z" fill="#464646"/>
<path fill-rule="evenodd" clip-rule="evenodd" d="M329.345 265.557C332.643 268.701 331.156 272.645 326.029 274.364C320.901 276.084 314.073 274.93 310.777 271.785C307.482 268.641 308.966 264.698 314.094 262.978C319.221 261.258 326.05 262.412 329.345 265.557Z" fill="black"/>
<path fill-rule="evenodd" clip-rule="evenodd" d="M327.253 266.105C329.811 268.546 328.658 271.608 324.676 272.943C320.697 274.279 315.395 273.382 312.837 270.941C310.278 268.499 311.429 265.438 315.411 264.102C319.392 262.766 324.694 263.663 327.253 266.105Z" fill="#C961DE"/>
<path d="M304.129 223.263C304.332 223.051 304.801 222.973 305.176 223.088C309.399 224.388 313.776 225.041 318.168 225.075C318.595 225.078 318.936 225.277 318.93 225.518C318.924 225.759 318.574 225.952 318.147 225.949C313.504 225.913 308.881 225.223 304.438 223.856C304.063 223.74 303.925 223.475 304.129 223.263Z" fill="#DD936F"/>
<path fill-rule="evenodd" clip-rule="evenodd" d="M310.909 286.843C310.909 286.843 292.287 278.016 280.843 278.479C269.956 278.919 263.426 283.934 265.291 286.749C265.291 286.749 262.806 289.213 266.846 290.004C266.302 291.808 270.889 291.676 270.889 291.676C270.889 291.676 270.113 292.819 273.378 293.083C276.643 293.347 280.249 289.563 288.725 290.341L310.909 286.843Z" fill="#FFC999"/>
<path d="M280.377 277.812C275.277 278.018 269.805 280.073 265.873 282.819C264.223 283.971 263.086 285.106 262.766 285.937L262.728 286.049C262.519 286.745 262.941 287.243 263.845 287.406L263.902 287.415L263.831 287.507C263.576 287.861 263.453 288.22 263.518 288.576L263.548 288.702C263.717 289.24 264.328 289.682 265.384 289.992L265.62 290.057L265.619 290.087C265.63 290.946 266.654 291.491 268.233 291.736L268.567 291.783C268.9 291.825 269.232 291.851 269.549 291.867L269.637 291.87L269.643 291.905C269.68 292.068 269.773 292.232 269.938 292.394C270.413 292.858 271.378 293.164 272.86 293.284C273.685 293.351 274.501 293.233 275.469 292.95L275.764 292.86C276.365 292.67 278.657 291.813 278.684 291.804C281.882 290.661 284.59 290.21 288.193 290.541C288.298 290.551 288.406 290.548 288.509 290.533L311.548 287.165C312.161 287.075 312.333 286.629 311.841 286.403L311.011 286.032L310.167 285.664C309.723 285.473 309.246 285.271 308.74 285.06C306.33 284.056 303.739 283.053 301.065 282.115C297.979 281.033 294.98 280.11 292.139 279.395C287.79 278.3 283.971 277.731 280.805 277.799L280.377 277.812ZM291.511 280.193C294.282 280.89 297.221 281.795 300.252 282.858C302.888 283.782 305.446 284.773 307.824 285.764L308.935 286.232L309.649 286.54L288.275 289.664L288.44 289.679C284.565 289.323 281.585 289.781 278.26 290.925L277.859 291.065C277.788 291.091 275.552 291.926 275.01 292.097C274.178 292.36 273.583 292.46 273.078 292.419C272.028 292.334 271.485 292.162 271.274 291.956C271.187 291.871 271.16 291.777 271.175 291.687L271.201 291.601C271.387 291.327 271.053 291.037 270.549 291.01L270.406 291.009C269.897 291.017 269.248 290.988 268.641 290.894C267.52 290.72 267.028 290.414 267.2 289.847C267.264 289.636 267.049 289.43 266.692 289.36C265.58 289.142 265.119 288.85 265.054 288.487C265.007 288.229 265.157 287.924 265.447 287.613C265.605 287.444 265.762 287.314 265.856 287.248C266.32 286.923 265.789 286.45 265.071 286.55L264.793 286.585C264.174 286.65 264.111 286.55 264.275 286.123C264.535 285.449 265.561 284.425 267.073 283.369C270.761 280.794 275.884 278.87 280.487 278.684C283.434 278.564 287.176 279.102 291.511 280.193Z" fill="#DD936F"/>
<path d="M280.281 280.861C280.704 280.831 281.09 281.001 281.143 281.24C281.196 281.48 280.896 281.698 280.472 281.728C277.535 281.935 274.353 282.884 271.151 284.339C269.853 284.929 268.643 285.562 267.553 286.194L267.014 286.513L266.362 286.919C266.285 286.969 266.229 287.006 266.194 287.03C265.92 287.215 265.433 287.239 265.106 287.084C264.779 286.928 264.737 286.653 265.011 286.468L265.393 286.221C265.698 286.029 266.051 285.815 266.447 285.585C267.578 284.928 268.834 284.272 270.183 283.658C273.589 282.11 277.005 281.092 280.281 280.861Z" fill="#DD936F"/>
<path d="M285.416 283.219C285.843 283.211 286.2 283.4 286.214 283.642C286.228 283.883 285.894 284.085 285.468 284.093C285.21 284.098 284.95 284.107 284.687 284.121C281.042 284.316 277.081 285.373 273.081 287.017C271.505 287.664 270.032 288.359 268.706 289.054C268.358 289.236 268.039 289.408 267.752 289.568L267.1 289.941C267.08 289.953 267.062 289.964 267.048 289.972C266.757 290.149 266.269 290.158 265.957 289.994C265.645 289.829 265.627 289.553 265.918 289.377L266.381 289.107L266.977 288.776C267.19 288.66 267.417 288.538 267.657 288.413C269.025 287.696 270.544 286.979 272.173 286.31C276.376 284.582 280.57 283.464 284.541 283.251C284.835 283.236 285.127 283.225 285.416 283.219Z" fill="#DD936F"/>
<path d="M285.393 285.997C285.819 285.982 286.186 286.165 286.213 286.405C286.24 286.646 285.917 286.854 285.491 286.869C284.173 286.916 282.535 287.237 280.664 287.791C279.346 288.182 277.945 288.678 276.499 289.256C275.162 289.789 273.861 290.362 272.648 290.934L272.043 291.223L271.098 291.694C270.784 291.857 270.295 291.845 270.007 291.667C269.718 291.489 269.739 291.213 270.054 291.05L270.486 290.831L271.038 290.56C271.234 290.465 271.441 290.366 271.659 290.264C272.902 289.677 274.235 289.09 275.608 288.542C277.106 287.944 278.563 287.427 279.948 287.017C281.994 286.411 283.821 286.054 285.393 285.997Z" fill="#DD936F"/>
<path d="M268.32 263.263C268.607 263.205 268.92 263.274 269.067 263.419L269.114 263.477L275.985 274.402C276.125 274.625 275.846 274.86 275.429 274.871L275.071 274.884C274.773 274.896 274.426 274.913 274.035 274.935C272.914 274.998 271.664 275.091 270.318 275.219C266.472 275.584 262.627 276.159 259.044 276.988C252.492 278.503 247.581 280.688 244.956 283.651C244.802 283.825 244.428 283.895 244.121 283.808C243.814 283.721 243.69 283.509 243.844 283.336C246.623 280.2 251.767 277.91 258.574 276.336C262.25 275.486 266.181 274.899 270.112 274.525C271.258 274.416 272.336 274.332 273.328 274.27L274.206 274.219L274.539 274.202L267.943 263.713C267.84 263.55 267.962 263.373 268.218 263.29L268.32 263.263Z" fill="black"/>
<path d="M371.038 271.159C375.828 269.989 380.914 269.511 385.937 270.13C386.272 270.172 386.485 270.359 386.412 270.549C386.339 270.739 386.007 270.859 385.672 270.818C380.937 270.234 376.102 270.688 371.531 271.805C370.606 272.031 369.753 272.271 368.984 272.512L368.533 272.657C368.007 272.83 367.643 272.963 367.458 273.037C367.177 273.149 366.789 273.111 366.592 272.952C366.394 272.793 366.461 272.573 366.742 272.462L367.052 272.345C367.297 272.255 367.583 272.156 367.907 272.049C368.831 271.745 369.88 271.442 371.038 271.159Z" fill="black"/>
<path d="M361.652 282.867C361.819 282.645 362.273 282.542 362.665 282.637C365.406 283.302 367.933 284.368 370.233 285.724C371.638 286.552 372.873 287.438 373.931 288.324C374.209 288.557 374.46 288.777 374.683 288.983L375.071 289.351C375.145 289.424 375.2 289.48 375.236 289.518C375.462 289.758 375.25 290.048 374.814 290.135L374.701 290.153L360.624 291.684L314.156 304.879C313.813 304.976 313.403 304.916 313.185 304.745L313.119 304.685C312.947 304.491 313.055 304.258 313.356 304.135L313.463 304.098L360.026 290.877L360.227 290.838L373.336 289.412L373.146 289.24C373.07 289.172 372.99 289.102 372.908 289.031L372.652 288.813C371.64 287.966 370.458 287.118 369.119 286.329C366.952 285.052 364.588 284.054 362.057 283.44C361.665 283.345 361.484 283.088 361.652 282.867Z" fill="#DD936F"/>
<path d="M280.036 315.658C280.163 315.442 280.575 315.326 280.955 315.398L281.736 315.538L282.423 315.654C282.906 315.735 283.438 315.82 284.019 315.911C286.511 316.297 289.363 316.684 292.53 317.046C312.618 319.338 334.003 319.51 354.169 316.182C354.554 316.118 354.957 316.243 355.069 316.461C355.182 316.679 354.961 316.907 354.576 316.97C334.152 320.341 312.542 320.167 292.243 317.851C289.043 317.486 286.158 317.095 283.635 316.703L282.786 316.569C282.38 316.504 282.002 316.441 281.652 316.382L280.681 316.212C280.604 316.198 280.542 316.187 280.494 316.177C280.114 316.105 279.909 315.873 280.036 315.658Z" fill="#253368"/>
<path d="M312.481 200.983C312.996 200.983 313.413 201.219 313.413 201.51C313.413 203.536 310.716 205.196 307.348 205.196C303.981 205.196 301.287 203.536 301.287 201.51C301.287 201.219 301.704 200.983 302.219 200.983C302.734 200.983 303.151 201.219 303.151 201.51C303.151 202.973 305.048 204.142 307.348 204.142C309.65 204.142 311.549 202.973 311.549 201.51C311.549 201.219 311.966 200.983 312.481 200.983Z" fill="#253368"/>
<path d="M335.995 201.345C336.484 201.345 336.879 201.569 336.879 201.846C336.879 203.847 334.457 205.505 331.378 205.505C328.298 205.505 325.876 203.847 325.876 201.846C325.876 201.569 326.272 201.345 326.76 201.345C327.248 201.345 327.644 201.569 327.644 201.846C327.644 203.332 329.357 204.504 331.378 204.504C333.398 204.504 335.111 203.332 335.111 201.846C335.111 201.569 335.507 201.345 335.995 201.345Z" fill="#253368"/>
<path d="M301.95 195.304C305.508 194.454 309.275 194.539 312.836 195.186C313.86 195.372 314.624 195.56 315.062 195.691C315.517 195.827 315.692 196.146 315.451 196.404C315.211 196.661 314.647 196.76 314.192 196.624L313.958 196.56C313.886 196.541 313.8 196.519 313.702 196.495C313.282 196.391 312.8 196.288 312.266 196.191C309.092 195.614 305.761 195.538 302.675 196.275C302.112 196.41 301.563 196.571 301.029 196.76C300.592 196.914 300.017 196.839 299.744 196.592C299.472 196.345 299.604 196.02 300.041 195.865C300.659 195.647 301.296 195.46 301.95 195.304Z" fill="#253368"/>
<path fill-rule="evenodd" clip-rule="evenodd" d="M352.19 315.65C368.554 316.267 408.563 374.47 423.655 395.277C421.787 399.5 410.017 407.006 410.017 407.006C410.017 407.006 411.36 410.349 412.186 412.357C398.368 418.942 371.455 422.646 371.455 422.646V425.526C328.538 437.048 270.541 426.655 270.541 426.655C270.541 426.655 269.448 426.038 270.177 423.775C250.583 423.775 208.351 409.989 208.351 409.989L214.169 402.994L196.713 393.117C196.713 393.117 250.058 341.503 259.146 330.156C269.268 317.518 280.452 315.171 280.452 315.171C280.452 315.171 323.151 314.554 352.19 315.65Z" fill="#002AB2"/>
<path d="M260.065 348.085C260.237 347.88 260.67 347.793 261.033 347.891C261.358 347.979 261.515 348.186 261.418 348.376L261.376 348.439L209.989 409.448L210.635 409.71L211.183 409.927C212.567 410.47 214.197 411.075 216.064 411.727C221.403 413.592 227.562 415.458 234.455 417.2C245.523 419.996 257.405 422.198 269.95 423.578C270.344 423.621 270.601 423.837 270.524 424.06C270.448 424.283 270.067 424.428 269.673 424.385C257.014 422.992 245.027 420.771 233.863 417.95C226.908 416.193 220.693 414.31 215.301 412.426C213.622 411.84 212.13 411.29 210.833 410.788L210.356 410.602C210.06 410.486 209.788 410.378 209.54 410.278L208.849 409.995C208.753 409.954 208.681 409.924 208.635 409.904C208.396 409.801 208.298 409.627 208.376 409.468L208.42 409.401L260.065 348.085Z" fill="black"/>
<path d="M364.471 342.736C364.807 342.661 365.182 342.738 365.36 342.908L365.412 342.969L413.592 412.619C413.716 412.798 413.603 413.002 413.321 413.109L412.983 413.235C412.708 413.336 412.384 413.453 412.013 413.585L411.063 413.916C410.237 414.201 409.326 414.506 408.334 414.827C404.369 416.11 399.929 417.393 395.118 418.591C387.485 420.49 379.648 421.992 371.789 422.945C371.397 422.992 371.011 422.851 370.927 422.629C370.843 422.407 371.093 422.189 371.485 422.141C379.24 421.201 386.985 419.717 394.533 417.839C399.295 416.653 403.69 415.383 407.613 414.114C408.985 413.67 410.199 413.258 411.242 412.888L412.024 412.607L364.059 343.268C363.928 343.078 364.064 342.866 364.365 342.765L364.471 342.736Z" fill="black"/>
<path d="M337.309 326.668C337.702 326.621 338.086 326.763 338.169 326.985L340.791 334.125C341.723 336.678 342.716 339.409 343.759 342.296L344.712 344.935C349.243 357.498 353.773 370.313 358.045 382.745L359.108 385.845C359.893 388.14 360.663 390.404 361.416 392.634L363.047 397.485C366.566 408.005 369.636 417.538 372.17 425.868C372.23 426.065 372.029 426.258 371.696 426.325C369.264 426.811 366.798 427.256 364.297 427.662C338.249 431.896 310.471 431.761 284.317 428.992C280.306 428.568 276.691 428.113 273.529 427.657L272.466 427.502C272.127 427.451 271.803 427.402 271.495 427.355L270.228 427.154C269.936 427.106 269.725 427.07 269.598 427.048C269.282 426.992 269.077 426.824 269.086 426.643L269.101 426.574L294.209 356.215C294.288 355.992 294.671 355.848 295.064 355.893C295.418 355.934 295.66 356.113 295.646 356.311L295.632 356.377L270.656 426.368L271.879 426.562C272.487 426.656 273.157 426.756 273.887 426.861C277.019 427.312 280.605 427.763 284.584 428.184C310.535 430.931 338.097 431.066 363.896 426.873C365.874 426.551 367.831 426.205 369.766 425.834L370.633 425.663L369.697 422.613C367.291 414.835 364.459 406.106 361.266 396.583L360.551 394.454C359.62 391.689 358.663 388.87 357.682 386.001C353.807 374.67 349.698 362.972 345.553 351.397L341.411 339.906L336.747 327.154C336.665 326.932 336.917 326.714 337.309 326.668Z" fill="black"/>
<path d="M316.574 327.997C316.935 328.009 317.22 328.167 317.258 328.363L317.261 328.43L310.909 396.225C310.888 396.451 310.546 396.625 310.146 396.614C309.785 396.602 309.5 396.445 309.462 396.248L309.459 396.181L315.811 328.387C315.832 328.16 316.174 327.986 316.574 327.997Z" fill="black"/>
<path d="M295.308 317.681C295.433 317.466 295.844 317.349 296.225 317.419C296.568 317.483 296.77 317.677 296.716 317.873L296.688 317.938L272.686 359.295C272.561 359.511 272.151 359.628 271.77 359.557C271.427 359.494 271.225 359.299 271.279 359.104L271.306 359.039L295.308 317.681Z" fill="black"/>
<path fill-rule="evenodd" clip-rule="evenodd" d="M246.163 572.848C245.931 573.427 242.448 552.72 242.615 546.614C257.073 547.694 270.439 546.923 270.439 546.923C270.439 546.923 268.529 570.533 269.075 572.848C258.709 576.397 246.163 572.848 246.163 572.848Z" fill="#597EF7"/>
<path fill-rule="evenodd" clip-rule="evenodd" d="M249.13 600.866C250.926 609.051 258.709 613.382 266.739 613.861C276.683 614.455 287.51 612.869 289.259 607.826C291.256 602.071 286.019 599.126 280.17 590.896C274.32 582.665 271.529 575.626 269.348 569.762C269.348 569.762 261.891 567.293 263.891 574.391C265.512 580.138 269.438 596.305 276.347 597.435C269.618 597.128 255.798 600.111 255.798 600.111C255.798 600.111 260.709 595.79 260.347 594.349C259.983 592.91 255.919 578.152 255.71 573.774C255.501 569.445 248.862 569.967 245.662 570.473C244.666 570.631 244.032 571.175 244.153 571.757C244.455 573.199 248.282 596.991 249.13 600.866Z" fill="#4E5C93"/>
<path fill-rule="evenodd" clip-rule="evenodd" d="M252.708 579.175C252.708 579.175 244.414 569.351 252.708 568.374C259.255 567.602 265.528 567.447 266.346 568.374C266.651 568.718 266.62 571.923 268.801 578.558C271.349 586.305 277.862 595.39 280.259 597.23C284.077 600.162 279.985 600.316 270.711 601.706C261.437 603.095 258.165 603.095 255.709 600.316C253.254 597.539 253.254 585.194 252.708 579.175Z" fill="#4E5C93"/>
<path d="M268.723 581.597C269.222 581.487 269.783 581.627 269.977 581.909C270.171 582.191 269.924 582.508 269.426 582.618C268.291 582.868 267.036 583.214 265.684 583.646C264.383 584.061 263.013 584.548 261.597 585.093C260.237 585.616 258.892 586.169 257.6 586.729L256.877 587.045L256.922 587.046C258.015 587.069 259.174 587.139 260.393 587.251L261.008 587.311C263.392 587.554 265.921 587.945 268.505 588.443C270.089 588.748 271.598 589.075 272.982 589.402L273.672 589.568L274.76 589.842C275.641 590.077 275.428 590.818 274.46 590.882C270.807 591.125 266.882 592.234 262.953 593.936C261.362 594.624 259.881 595.363 258.55 596.102C258.271 596.257 258.011 596.405 257.771 596.545L257.318 596.814C257.107 596.942 256.964 597.031 256.893 597.077C256.541 597.305 255.929 597.328 255.527 597.129C255.124 596.929 255.083 596.583 255.435 596.355L255.777 596.143L255.904 596.065C256.277 595.84 256.708 595.589 257.193 595.32C258.577 594.552 260.117 593.783 261.775 593.065C264.786 591.762 267.813 590.779 270.79 590.231L271.157 590.165L270.565 590.033C269.99 589.907 269.4 589.783 268.796 589.661L267.881 589.481C265.382 588.999 262.943 588.622 260.665 588.389C258.162 588.134 255.95 588.064 254.113 588.206C253.154 588.28 252.618 587.6 253.354 587.245L253.919 586.979L254.794 586.579C255.002 586.485 255.219 586.387 255.445 586.287C257.056 585.571 258.768 584.855 260.508 584.186C261.966 583.626 263.381 583.122 264.732 582.691C266.159 582.236 267.494 581.867 268.723 581.597Z" fill="#CCD7EE"/>
<path d="M253.773 583.012C255.647 582.776 257.915 582.767 260.501 582.943C262.571 583.084 264.771 583.339 267.012 583.675C268.001 583.823 268.949 583.98 269.838 584.139L270.767 584.309L271.868 584.526C272.71 584.703 272.709 585.377 271.866 585.553C268.646 586.228 265.512 587.285 262.527 588.621C260.851 589.37 259.311 590.168 257.93 590.971L257.19 591.411L256.815 591.641L258.052 591.656C258.392 591.661 258.745 591.667 259.107 591.675L259.658 591.688C262.446 591.756 265.198 591.888 267.778 592.101C272.442 592.485 276.131 593.095 278.522 593.997C278.967 594.165 279.088 594.505 278.791 594.757C278.494 595.009 277.893 595.077 277.448 594.909C275.353 594.119 271.902 593.548 267.499 593.185C264.991 592.978 262.302 592.849 259.575 592.783C258.298 592.752 257.139 592.737 256.147 592.734L254.73 592.737C253.915 592.747 253.444 592.217 253.945 591.853L254.349 591.573L254.47 591.492C254.889 591.211 255.38 590.9 255.936 590.565C257.524 589.609 259.331 588.654 261.325 587.761C263.624 586.733 266.014 585.859 268.478 585.183L268.783 585.102L268.598 585.069C268.154 584.993 267.696 584.917 267.227 584.844L266.515 584.734C264.355 584.411 262.241 584.165 260.269 584.031C257.883 583.869 255.821 583.877 254.193 584.082C253.671 584.147 253.154 583.961 253.038 583.666C252.922 583.37 253.251 583.078 253.773 583.012Z" fill="#CCD7EE"/>
<path fill-rule="evenodd" clip-rule="evenodd" d="M249.98 602.477C249.98 602.477 269.619 593.218 287.622 600.008C292.123 605.684 289.521 609.058 287.35 610.81C286.452 611.535 284.748 612.547 283.279 612.847C278.895 613.742 267.401 615.539 259.256 612.507C248.89 608.65 249.98 602.477 249.98 602.477Z" fill="#CCD7EE"/>
<path d="M286.11 599.957C286.36 599.882 286.672 599.935 286.806 600.077C289.346 602.772 286.68 606.268 282.999 607.658C280.377 608.646 271.127 609.541 263.779 609.352C260.129 609.258 257.194 607.98 254.907 605.927C254.085 605.19 253.405 604.401 252.858 603.613C252.714 603.406 252.588 603.21 252.477 603.028L252.289 602.702C252.254 602.637 252.228 602.588 252.212 602.554C252.137 602.399 252.298 602.239 252.572 602.197C252.846 602.154 253.129 602.245 253.205 602.4L253.351 602.67L253.562 603.019C253.639 603.141 253.724 603.268 253.816 603.4C254.341 604.157 254.993 604.913 255.777 605.617C257.903 607.524 260.572 608.687 263.826 608.771C270.975 608.955 280.027 608.079 282.428 607.174C285.715 605.933 288.15 602.74 285.898 600.351C285.764 600.209 285.859 600.033 286.11 599.957Z" fill="#A3B5D6"/>
<path d="M242.488 550.203C242.6 549.907 243.115 549.718 243.638 549.782L244.45 549.871L244.862 549.914C245.86 550.014 246.995 550.115 248.244 550.209C254.521 550.68 261.043 550.808 267.118 550.384C267.728 550.341 268.33 550.293 268.922 550.239C269.45 550.192 269.947 550.395 270.032 550.694C270.116 550.993 269.757 551.274 269.229 551.322C268.613 551.377 267.988 551.427 267.355 551.471C261.094 551.909 254.416 551.778 247.989 551.295C246.924 551.215 245.939 551.13 245.047 551.044L244.015 550.94L243.233 550.853C242.71 550.79 242.376 550.499 242.488 550.203Z" fill="#CCD7EE"/>
<path d="M260.069 576.829L260.201 576.827L260.98 576.85C261.592 576.871 262.273 576.899 263.006 576.937C265.103 577.044 267.2 577.202 269.165 577.42C275.983 578.18 279.828 579.478 278.54 581.664C277.351 583.682 273.694 583.402 268.712 581.727C267.652 581.37 266.542 580.953 265.399 580.488C264.055 579.941 262.735 579.356 261.492 578.772L261.173 578.621L260.712 578.399L260.097 578.895L259.791 579.136C258.595 580.072 257.316 581.009 256.003 581.885C254.676 582.771 253.385 583.546 252.154 584.18C248.832 585.89 246.039 586.543 243.936 585.628C242.662 585.073 242.513 584.277 243.326 583.452C243.933 582.837 245.079 582.176 246.7 581.456C247.93 580.909 249.416 580.337 251.106 579.748C252.838 579.145 254.69 578.556 256.541 578.005L257.476 577.73L259.016 577.293C259.057 577.282 259.097 577.273 259.139 577.265L259.221 577.253L259.241 577.209C259.356 577.003 259.68 576.851 260.069 576.829ZM257.695 578.9L257.443 578.974C255.628 579.515 253.812 580.092 252.122 580.681C250.49 581.25 249.062 581.8 247.897 582.317C246.46 582.956 245.472 583.526 245.018 583.986C244.638 584.371 244.675 584.567 245.117 584.759C246.168 585.216 248.173 584.747 250.85 583.369C252.013 582.771 253.248 582.029 254.526 581.176C255.548 580.495 256.552 579.773 257.51 579.043L257.695 578.9ZM262.958 578.035L263.465 578.27C264.456 578.725 265.487 579.174 266.53 579.599C267.63 580.046 268.694 580.445 269.702 580.784C273.71 582.132 276.114 582.317 276.703 581.317C277.41 580.117 274.485 579.13 268.791 578.496C267.215 578.32 265.54 578.185 263.848 578.084L262.958 578.035Z" fill="#CCD7EE"/>
<path d="M252.076 571.891C252.564 571.866 253.001 572.05 253.107 572.313L253.128 572.387L253.854 576.914C253.903 577.215 253.51 577.482 252.977 577.509C252.489 577.534 252.052 577.349 251.946 577.086L251.925 577.013L251.199 572.486C251.151 572.185 251.543 571.918 252.076 571.891Z" fill="#CCD7EE"/>
<path d="M264.805 570.451C265.294 570.426 265.73 570.61 265.837 570.873L265.858 570.947L266.584 575.474C266.632 575.775 266.239 576.042 265.707 576.069C265.218 576.094 264.782 575.909 264.675 575.646L264.655 575.573L263.928 571.046C263.88 570.745 264.273 570.478 264.805 570.451Z" fill="#CCD7EE"/>
</svg>
