<svg width="1184" height="1402" viewBox="0 0 1184 1402" fill="none" xmlns="http://www.w3.org/2000/svg">
<path d="M1115.94 944.215C1108.31 1041.26 1023.45 1113.74 926.406 1106.11C829.361 1098.48 756.877 1013.62 764.51 916.575C772.142 819.53 857 747.047 954.045 754.679C1051.09 762.311 1123.57 847.169 1115.94 944.215Z" fill="url(#paint0_linear_1_1228)"/>
<path d="M1078.02 938.978C1078.8 1008.06 1024.2 1054.69 956.089 1043.13C887.974 1031.56 832.128 966.184 831.354 897.099C830.58 828.013 885.17 781.383 953.286 792.948C1021.4 804.512 1077.25 869.893 1078.02 938.978Z" fill="url(#paint1_radial_1_1228)"/>
<path d="M1068.11 985.067C1082.31 1063.46 1032.86 1105.71 957.645 1079.43C882.434 1053.14 809.95 968.285 795.749 889.89C781.547 811.495 831.005 769.249 906.216 795.531C981.428 821.814 1053.91 906.672 1068.11 985.067Z" fill="url(#paint2_radial_1_1228)"/>
<path d="M1067.76 985.132C1074.84 1024.25 1066.03 1054.26 1046.17 1071.23C1026.31 1088.19 995.297 1092.2 957.764 1079.08C920.233 1065.97 883.36 1038.23 854.093 1003.97C824.826 969.702 803.191 928.946 796.104 889.826C789.017 850.704 797.828 820.694 817.687 803.731C837.547 786.768 868.564 782.756 906.097 795.872C943.629 808.988 980.502 836.728 1009.77 870.992C1039.04 905.255 1060.67 946.011 1067.76 985.132Z" stroke="url(#paint3_linear_1_1228)" stroke-opacity="0.2" stroke-width="0.722376"/>
<mask id="path-5-inside-1_1_1228" fill="white">
<path fill-rule="evenodd" clip-rule="evenodd" d="M1036.34 1004.43C1036.91 996.075 1036.18 986.745 1034.02 976.564C1021.52 917.499 965.671 852.12 909.288 830.534C899.569 826.813 890.468 824.636 882.125 823.884C877.827 767.824 916.932 740.009 975.066 761.262C1038.17 784.332 1099.81 856.487 1112.73 922.425C1124.63 983.166 1091.04 1017.44 1036.34 1004.43Z"/>
</mask>
<path fill-rule="evenodd" clip-rule="evenodd" d="M1036.34 1004.43C1036.91 996.075 1036.18 986.745 1034.02 976.564C1021.52 917.499 965.671 852.12 909.288 830.534C899.569 826.813 890.468 824.636 882.125 823.884C877.827 767.824 916.932 740.009 975.066 761.262C1038.17 784.332 1099.81 856.487 1112.73 922.425C1124.63 983.166 1091.04 1017.44 1036.34 1004.43Z" fill="url(#paint4_linear_1_1228)"/>
<path d="M1034.02 976.564L1033.32 976.713L1034.02 976.564ZM1036.34 1004.43L1035.62 1004.38L1035.58 1004.99L1036.18 1005.14L1036.34 1004.43ZM909.289 830.534L909.547 829.859L909.289 830.534ZM882.125 823.884L881.405 823.939L881.452 824.549L882.061 824.604L882.125 823.884ZM975.066 761.262L974.818 761.94L975.066 761.262ZM1112.73 922.425L1112.02 922.564L1112.73 922.425ZM1033.32 976.713C1035.46 986.841 1036.18 996.103 1035.62 1004.38L1037.07 1004.48C1037.63 996.047 1036.9 986.65 1034.73 976.414L1033.32 976.713ZM909.03 831.208C937.081 841.948 965.044 863.603 987.56 889.963C1010.08 916.324 1027.09 947.328 1033.32 976.713L1034.73 976.414C1028.45 946.735 1011.29 915.517 988.659 889.025C966.03 862.533 937.879 840.706 909.547 829.859L909.03 831.208ZM882.061 824.604C890.327 825.349 899.363 827.507 909.03 831.208L909.547 829.859C899.776 826.118 890.61 823.923 882.19 823.165L882.061 824.604ZM882.846 823.829C880.71 795.968 889.363 775.292 905.592 764.177C921.837 753.051 945.879 751.361 974.818 761.94L975.314 760.583C946.119 749.91 921.542 751.502 904.776 762.985C887.993 774.479 879.243 795.74 881.405 823.939L882.846 823.829ZM974.818 761.94C1006.23 773.422 1037.31 797.141 1062.17 826.237C1087.02 855.333 1105.59 889.746 1112.02 922.564L1113.44 922.286C1106.95 889.166 1088.24 854.533 1063.27 825.299C1038.29 796.065 1007.01 772.171 975.314 760.583L974.818 761.94ZM1112.02 922.564C1117.94 952.8 1112.52 976.283 1098.99 990.589C1085.47 1004.88 1063.7 1010.2 1036.51 1003.73L1036.18 1005.14C1063.69 1011.68 1086.06 1006.36 1100.04 991.582C1114 976.816 1119.41 952.79 1113.44 922.286L1112.02 922.564Z" fill="url(#paint5_linear_1_1228)" fill-opacity="0.3" mask="url(#path-5-inside-1_1_1228)"/>
<g style="mix-blend-mode:lighten">
<ellipse cx="938.079" cy="838.599" rx="215.27" ry="209.678" transform="rotate(-130.503 938.079 838.599)" fill="url(#paint6_radial_1_1228)" fill-opacity="0.6"/>
</g>
<g style="mix-blend-mode:lighten">
<path d="M683.261 646.357C807.446 540.281 994.401 555.305 1100.84 679.912C1207.27 804.52 1192.89 991.525 1068.7 1097.6C944.516 1203.68 757.56 1188.65 651.124 1064.05C544.687 939.438 559.075 752.432 683.261 646.357Z" fill="url(#paint7_radial_1_1228)" fill-opacity="0.8"/>
</g>
<path d="M1034.02 976.563C1046.53 1035.63 1010.96 1066.01 954.575 1044.42C898.192 1022.84 842.347 957.458 829.84 898.394C817.334 839.33 852.903 808.948 909.286 830.533C965.669 852.119 1021.52 917.499 1034.02 976.563Z" fill="url(#paint8_radial_1_1228)"/>
<path d="M827.382 1275.56C730.641 1289.41 654.855 1264.08 610.44 1212.09C566.026 1160.09 552.861 1081.28 581.666 987.889C610.472 894.5 675.78 804.3 758.107 733.978C840.435 663.656 939.735 613.252 1036.48 599.4C1133.22 585.548 1209.01 610.872 1253.42 662.869C1297.84 714.866 1311 793.679 1282.2 887.065C1253.39 980.455 1188.08 1070.65 1105.75 1140.98C1023.43 1211.3 924.127 1261.7 827.382 1275.56Z" stroke="url(#paint9_linear_1_1228)" stroke-width="1.20396"/>
<path d="M816.4 1263.1C719.546 1276.97 643.574 1251.62 599.023 1199.46C554.472 1147.31 541.316 1068.31 570.155 974.813C598.994 881.317 664.363 791.044 746.744 720.677C829.124 650.31 928.507 599.856 1025.36 585.988C1122.21 572.121 1198.19 597.464 1242.74 649.621C1287.29 701.779 1300.44 780.778 1271.61 874.273C1242.77 967.768 1177.4 1058.04 1095.02 1128.41C1012.64 1198.78 913.254 1249.23 816.4 1263.1Z" stroke="url(#paint10_linear_1_1228)" stroke-width="0.240792"/>
<path d="M806.426 1321.7C693.147 1335.71 603.485 1303.92 550.016 1241.32C496.547 1178.72 479.165 1085.2 510.71 975.499C542.256 865.798 616.746 760.768 711.706 679.656C806.666 598.544 922.049 541.388 1035.33 527.38C1148.61 513.372 1238.27 545.161 1291.74 607.759C1345.21 670.356 1362.59 763.886 1331.05 873.582C1299.5 983.283 1225.01 1088.31 1130.05 1169.42C1035.09 1250.54 919.71 1307.69 806.426 1321.7Z" stroke="url(#paint11_linear_1_1228)" stroke-width="1.20396"/>
<path d="M806.426 1321.7C693.147 1335.71 603.485 1303.92 550.016 1241.32C496.547 1178.72 479.165 1085.2 510.71 975.499C542.256 865.798 616.746 760.768 711.706 679.656C806.666 598.544 922.049 541.388 1035.33 527.38C1148.61 513.372 1238.27 545.161 1291.74 607.759C1345.21 670.356 1362.59 763.886 1331.05 873.582C1299.5 983.283 1225.01 1088.31 1130.05 1169.42C1035.09 1250.54 919.71 1307.69 806.426 1321.7Z" stroke="url(#paint12_linear_1_1228)" stroke-opacity="0.2" stroke-width="1.20396"/>
<path d="M796.391 1309.92C678.699 1318.75 583.215 1280.19 523.929 1210.78C464.643 1141.38 441.483 1041.04 468.607 926.175C495.733 811.303 568.009 703.694 662.959 622.59C757.91 541.486 875.494 486.921 993.194 478.086C1110.89 469.252 1206.37 507.813 1265.66 577.221C1324.94 646.629 1348.1 746.967 1320.98 861.831C1293.85 976.703 1221.58 1084.31 1126.63 1165.42C1031.68 1246.52 914.091 1301.08 796.391 1309.92Z" stroke="url(#paint13_linear_1_1228)" stroke-width="1.20396"/>
<rect x="767.815" y="851.083" width="4.57312" height="4.57311" transform="rotate(-85.5031 767.815 851.083)" fill="#00F0FF" fill-opacity="0.5"/>
<rect x="768.001" y="666.602" width="1.88565" height="1.88565" transform="rotate(-85.5031 768.001 666.602)" fill="#00F0FF"/>
<rect width="2.47636" height="2.47636" transform="matrix(-0.078406 0.996921 0.996922 0.0784061 1139.8 631.825)" fill="#00F0FF"/>
<rect x="835.94" y="617.145" width="2.85182" height="2.85182" transform="rotate(-85.5031 835.94 617.145)" fill="#00F0FF"/>
<rect x="844.123" y="658.704" width="1.69013" height="1.69013" transform="rotate(-85.5031 844.123 658.704)" fill="#00F0FF"/>
<rect x="851.315" y="928.761" width="4.57312" height="4.57311" transform="rotate(-85.5031 851.315 928.761)" fill="#00F0FF"/>
<rect x="718.653" y="1010.04" width="4.57312" height="4.57311" transform="rotate(-85.5031 718.653 1010.04)" fill="#0500FF" fill-opacity="0.5"/>
<rect x="681.729" y="869.548" width="3.19614" height="3.19614" transform="rotate(-85.5031 681.729 869.548)" fill="#3DFFFB"/>
<rect x="1056.6" y="1073.51" width="5.94404" height="5.94404" transform="rotate(-85.5031 1056.6 1073.51)" fill="#0500FF" fill-opacity="0.5"/>
<rect width="5.43657" height="5.43657" transform="matrix(-0.958331 -0.28566 0.285693 -0.958321 1119.6 828.558)" fill="#0066FF" fill-opacity="0.5"/>
<rect width="4.25311" height="4.25311" transform="matrix(-0.996921 -0.0784134 0.0783987 -0.996922 1015.65 756.282)" fill="#00D1FF"/>
<rect width="5.10915" height="5.10915" transform="matrix(0.958326 0.285676 0.285676 -0.958326 837.079 849.503)" fill="#001AFF" fill-opacity="0.5"/>
<rect x="865.228" y="724.383" width="5.43657" height="5.43657" transform="rotate(-163.401 865.228 724.383)" fill="#0066FF" fill-opacity="0.5"/>
<rect x="1032.67" y="637.686" width="3.93056" height="3.93056" transform="rotate(-175.503 1032.67 637.686)" fill="#0500FF" fill-opacity="0.5"/>
<rect width="3.80351" height="3.80351" transform="matrix(-0.958333 -0.285652 0.2857 -0.958319 1168.68 903.182)" fill="#0500FF" fill-opacity="0.5"/>
<rect width="3.04573" height="3.04573" transform="matrix(0.0784165 -0.996921 0.996922 0.0783957 806.552 856.046)" fill="#00FFF0" fill-opacity="0.6"/>
<rect x="779.768" y="1056.89" width="3.43135" height="3.43135" transform="rotate(-85.503 779.768 1056.89)" fill="#00FFF0"/>
<rect width="3.78863" height="3.78863" transform="matrix(-0.0784062 0.996921 0.996922 0.078406 664.837 816.816)" fill="#00FFF0"/>
<rect x="740.59" y="763.159" width="4.03142" height="4.03142" transform="rotate(-85.503 740.59 763.159)" fill="#00FFF0"/>
<rect width="4.03142" height="4.03142" transform="matrix(0.0783984 -0.996922 0.996921 0.0784138 1035.41 920.972)" fill="#00FFF0" fill-opacity="0.5"/>
<rect x="930.567" y="969.144" width="2.20999" height="2.20999" transform="rotate(-85.503 930.567 969.144)" fill="#00FFF0" fill-opacity="0.5"/>
<rect x="858.14" y="1105.44" width="4.03142" height="4.03142" transform="rotate(-120.813 858.14 1105.44)" fill="#0500FF" fill-opacity="0.5"/>
<rect x="816.9" y="1013.07" width="2.81467" height="2.81467" transform="rotate(-85.503 816.9 1013.07)" fill="#00D1FF" fill-opacity="0.6"/>
<rect x="844.529" y="1035.61" width="7.58361" height="7.58361" transform="rotate(-85.503 844.529 1035.61)" fill="#6100FF" fill-opacity="0.5"/>
<g opacity="0.5">
<rect x="654.487" y="748.131" width="3.04573" height="3.04573" transform="rotate(-85.5031 654.487 748.131)" fill="#00FFF0" fill-opacity="0.6"/>
<rect width="3.43135" height="3.43135" transform="matrix(0.0784151 -0.996921 0.996922 0.0783971 627.704 948.978)" fill="#00FFF0"/>
<rect width="3.78863" height="3.78863" transform="matrix(-0.078406 0.996922 0.996921 0.0784062 512.773 708.905)" fill="#00FFF0"/>
<rect width="4.03142" height="4.03142" transform="matrix(0.0783982 -0.996922 0.996921 0.078414 588.525 655.244)" fill="#00FFF0"/>
<rect x="883.345" y="813.057" width="4.03142" height="4.03142" transform="rotate(-85.5031 883.345 813.057)" fill="#00FFF0" fill-opacity="0.5"/>
<rect x="778.503" y="861.229" width="2.20999" height="2.20999" transform="rotate(-85.5031 778.503 861.229)" fill="#00FFF0" fill-opacity="0.5"/>
<rect x="706.076" y="997.523" width="4.03142" height="4.03142" transform="rotate(-120.813 706.076 997.523)" fill="#0500FF" fill-opacity="0.5"/>
<rect x="664.837" y="905.156" width="2.81467" height="2.81467" transform="rotate(-85.5031 664.837 905.156)" fill="#00D1FF" fill-opacity="0.6"/>
<rect width="7.58361" height="7.58361" transform="matrix(0.0784018 -0.996922 0.996921 0.0784103 692.465 927.698)" fill="#6100FF" fill-opacity="0.5"/>
</g>
<path d="M1025.76 1061.25L1020.37 1033.19L1047.25 1042.9L1052.64 1070.96L1025.76 1061.25Z" fill="url(#paint14_linear_1_1228)"/>
<path d="M1047.25 1042.9L1020.37 1033.19L998.641 1084.42L1047.25 1042.9Z" fill="url(#paint15_linear_1_1228)"/>
<path d="M1047.25 1042.91L1052.67 1070.96L998.642 1084.42L1047.25 1042.91Z" fill="url(#paint16_linear_1_1228)"/>
<path d="M827.469 821.452L824.066 803.743L841.025 809.873L844.428 827.581L827.469 821.452Z" fill="url(#paint17_linear_1_1228)"/>
<path d="M841.029 809.87L824.067 803.74L810.354 836.069L841.029 809.87Z" fill="url(#paint18_linear_1_1228)" fill-opacity="0.6"/>
<path d="M841.027 809.87L844.451 827.576L810.353 836.068L841.027 809.87Z" fill="url(#paint19_linear_1_1228)"/>
<path d="M712.749 680.626L706.932 651.387L735.034 661.337L740.851 690.576L712.749 680.626Z" fill="url(#paint20_linear_1_1228)"/>
<path d="M735.035 661.343L706.933 651.392L684.615 704.977L735.035 661.343Z" fill="url(#paint21_linear_1_1228)" fill-opacity="0.6"/>
<path d="M735.034 661.343L740.884 690.573L684.615 704.977L735.034 661.343Z" fill="url(#paint22_linear_1_1228)"/>
<path d="M856.947 975.875L855.236 989.303L865.219 1000.69L877.391 999.432L872.213 984.227L856.947 975.875Z" fill="url(#paint23_linear_1_1228)" fill-opacity="0.7"/>
<path d="M822.445 1026.06L859.188 1016.16L875.787 1013.88L822.445 1026.06Z" fill="url(#paint24_linear_1_1228)" fill-opacity="0.8"/>
<path d="M822.444 1026.06L840.194 994.4L842.705 975.919L822.444 1026.06Z" fill="url(#paint25_linear_1_1228)"/>
<path d="M842.703 975.924L840.196 994.411L855.236 989.304L856.949 975.873L842.703 975.924Z" fill="url(#paint26_linear_1_1228)" fill-opacity="0.6"/>
<path d="M859.185 1016.16L840.197 994.407L855.238 989.299L865.219 1000.69L859.185 1016.16Z" fill="url(#paint27_linear_1_1228)" fill-opacity="0.6"/>
<path d="M859.183 1016.16L875.785 1013.88L877.391 999.43L865.218 1000.69L859.183 1016.16Z" fill="url(#paint28_linear_1_1228)" fill-opacity="0.8"/>
<path d="M822.445 1026.06L867.3 989.377L875.787 1013.88L822.445 1026.06Z" fill="url(#paint29_linear_1_1228)"/>
<path d="M822.444 1026.06L867.297 989.377L842.705 975.917L822.444 1026.06Z" fill="url(#paint30_linear_1_1228)"/>
<path d="M875.785 1013.88L867.3 989.376L872.214 984.223L877.39 999.437L875.785 1013.88Z" fill="url(#paint31_linear_1_1228)" fill-opacity="0.6"/>
<path d="M842.699 975.924L867.297 989.379L872.215 984.226L856.942 975.874L842.699 975.924Z" fill="url(#paint32_linear_1_1228)" fill-opacity="0.6"/>
<path d="M822.033 580.616L849.426 629.842L806.395 621.549L822.033 580.616Z" fill="url(#paint33_linear_1_1228)"/>
<path d="M822.036 580.617L849.429 629.843L929.375 553.12L822.036 580.617Z" fill="url(#paint34_linear_1_1228)"/>
<path d="M755.808 588.035L806.417 621.546L822.035 580.617L755.808 588.035Z" fill="url(#paint35_linear_1_1228)"/>
<path d="M808.212 682.211L806.416 621.544L755.808 588.039L727.822 604.29L736.007 660.725L779.65 697.427L808.212 682.211Z" fill="url(#paint36_linear_1_1228)" fill-opacity="0.5"/>
<path d="M784.908 665.746L833.231 680.432L849.429 629.842L822.036 580.617L770.507 567.715L757.515 616.521L784.908 665.746Z" fill="url(#paint37_radial_1_1228)" fill-opacity="0.5"/>
<path d="M757.516 616.519L784.909 665.745L736.001 660.723L757.516 616.519Z" fill="url(#paint38_linear_1_1228)"/>
<path d="M757.516 616.521L784.909 665.746L929.374 553.117L757.516 616.521Z" fill="url(#paint39_linear_1_1228)" fill-opacity="0.9"/>
<path d="M779.653 697.428L784.909 665.746L736.001 660.724L779.653 697.428Z" fill="url(#paint40_linear_1_1228)" fill-opacity="0.5"/>
<path d="M727.822 604.286L757.515 616.52L736.003 660.729L727.822 604.286Z" fill="url(#paint41_linear_1_1228)" fill-opacity="0.5"/>
<path d="M779.653 697.43L784.909 665.749L833.232 680.435L779.653 697.43Z" fill="url(#paint42_linear_1_1228)"/>
<path d="M727.823 604.286L757.516 616.519L770.508 567.714L727.823 604.286Z" fill="url(#paint43_linear_1_1228)"/>
<path d="M727.823 604.286L757.516 616.519L770.508 567.714L727.823 604.286Z" fill="url(#paint44_linear_1_1228)" fill-opacity="0.6"/>
<path d="M929.376 553.117L784.909 665.748L833.232 680.434L929.376 553.117Z" fill="url(#paint45_linear_1_1228)" fill-opacity="0.9"/>
<path d="M929.376 553.116L757.512 616.515L770.504 567.709L929.376 553.116Z" fill="url(#paint46_linear_1_1228)" fill-opacity="0.9"/>
<defs>
<linearGradient id="paint0_linear_1_1228" x1="1016.58" y1="772.424" x2="891.209" y2="972.264" gradientUnits="userSpaceOnUse">
<stop stop-color="white"/>
<stop offset="0.165772" stop-color="#71FFF6"/>
<stop offset="0.552083" stop-color="#4F75FF"/>
<stop offset="1" stop-color="#5E64FF" stop-opacity="0"/>
</linearGradient>
<radialGradient id="paint1_radial_1_1228" cx="0" cy="0" r="1" gradientUnits="userSpaceOnUse" gradientTransform="translate(942.266 968.086) rotate(-77.9792) scale(157.011 187.398)">
<stop offset="0.40625" stop-color="#3330B1" stop-opacity="0.1"/>
<stop offset="0.678936" stop-color="#58FFFF" stop-opacity="0.5"/>
<stop offset="1" stop-color="white"/>
</radialGradient>
<radialGradient id="paint2_radial_1_1228" cx="0" cy="0" r="1" gradientUnits="userSpaceOnUse" gradientTransform="translate(930.724 815.165) rotate(123.323) scale(199.8 342.233)">
<stop stop-color="white"/>
<stop offset="0.298196" stop-color="#5EF5FF"/>
<stop offset="0.538073" stop-color="#3432BD"/>
<stop offset="0.914407" stop-color="#171940"/>
</radialGradient>
<linearGradient id="paint3_linear_1_1228" x1="924.607" y1="802.152" x2="875.854" y2="1015.91" gradientUnits="userSpaceOnUse">
<stop stop-color="white"/>
<stop offset="1" stop-color="white" stop-opacity="0"/>
</linearGradient>
<linearGradient id="paint4_linear_1_1228" x1="1011.85" y1="795.03" x2="994.689" y2="944.916" gradientUnits="userSpaceOnUse">
<stop stop-color="white"/>
<stop offset="0.502014" stop-color="#4FFFF4" stop-opacity="0.1"/>
<stop offset="1" stop-color="#5ECFFF" stop-opacity="0.6"/>
</linearGradient>
<linearGradient id="paint5_linear_1_1228" x1="997.549" y1="729.682" x2="1022.92" y2="1066.35" gradientUnits="userSpaceOnUse">
<stop stop-color="white"/>
<stop offset="1" stop-color="white" stop-opacity="0"/>
</linearGradient>
<radialGradient id="paint6_radial_1_1228" cx="0" cy="0" r="1" gradientUnits="userSpaceOnUse" gradientTransform="translate(938.079 853.461) rotate(80.7781) scale(166.684 171.23)">
<stop offset="0.0729167" stop-color="white"/>
<stop offset="0.507801" stop-color="#C173FF" stop-opacity="0.9"/>
<stop offset="1" stop-color="#0E26FF" stop-opacity="0"/>
</radialGradient>
<radialGradient id="paint7_radial_1_1228" cx="0" cy="0" r="1" gradientUnits="userSpaceOnUse" gradientTransform="translate(891.919 858.366) rotate(-49.5194) scale(234.948 236.158)">
<stop offset="0.0729167" stop-color="#8785FF"/>
<stop offset="1" stop-color="#3E0EFF" stop-opacity="0"/>
</radialGradient>
<radialGradient id="paint8_radial_1_1228" cx="0" cy="0" r="1" gradientUnits="userSpaceOnUse" gradientTransform="translate(837.489 1046.83) rotate(-55.6889) scale(204.144 359.183)">
<stop stop-color="#3330B1"/>
<stop offset="1" stop-color="#0A0926"/>
</radialGradient>
<linearGradient id="paint9_linear_1_1228" x1="673.979" y1="635.485" x2="954.382" y2="963.76" gradientUnits="userSpaceOnUse">
<stop stop-color="#8FBCFF" stop-opacity="0.6"/>
<stop offset="1" stop-color="#8FBCFF" stop-opacity="0"/>
</linearGradient>
<linearGradient id="paint10_linear_1_1228" x1="731.525" y1="702.861" x2="1095.1" y2="1128.5" gradientUnits="userSpaceOnUse">
<stop stop-color="#8FBCFF" stop-opacity="0.6"/>
<stop offset="1" stop-color="#8FBCFF" stop-opacity="0"/>
</linearGradient>
<linearGradient id="paint11_linear_1_1228" x1="598.063" y1="546.611" x2="982.421" y2="996.588" gradientUnits="userSpaceOnUse">
<stop stop-color="white" stop-opacity="0.6"/>
<stop offset="0.34375" stop-color="#8FBCFF" stop-opacity="0.6"/>
<stop offset="1" stop-color="#8FBCFF" stop-opacity="0"/>
</linearGradient>
<linearGradient id="paint12_linear_1_1228" x1="949.253" y1="550.784" x2="985.655" y2="708.452" gradientUnits="userSpaceOnUse">
<stop stop-color="#FF48D7"/>
<stop offset="0.234164" stop-color="white" stop-opacity="0.765836"/>
<stop offset="1" stop-color="#FF48D7" stop-opacity="0"/>
</linearGradient>
<linearGradient id="paint13_linear_1_1228" x1="642.387" y1="598.504" x2="920.655" y2="924.279" gradientUnits="userSpaceOnUse">
<stop stop-color="#8FBCFF" stop-opacity="0.6"/>
<stop offset="1" stop-color="#8FBCFF" stop-opacity="0"/>
</linearGradient>
<linearGradient id="paint14_linear_1_1228" x1="1018.99" y1="1050.7" x2="1054.02" y2="1053.45" gradientUnits="userSpaceOnUse">
<stop stop-color="#6083FF"/>
<stop offset="1" stop-color="#0C1E5E" stop-opacity="0"/>
</linearGradient>
<linearGradient id="paint15_linear_1_1228" x1="1027.28" y1="1029.53" x2="998.494" y2="1084.24" gradientUnits="userSpaceOnUse">
<stop offset="0.170794" stop-color="#3D3BA9"/>
<stop offset="0.537799" stop-color="#FF7BE2" stop-opacity="0.8"/>
<stop offset="0.791667" stop-color="white"/>
</linearGradient>
<linearGradient id="paint16_linear_1_1228" x1="998.833" y1="1084.64" x2="1050.39" y2="1067.81" gradientUnits="userSpaceOnUse">
<stop stop-color="#3DDCFF"/>
<stop offset="0.427083" stop-color="#9D50FF" stop-opacity="0"/>
<stop offset="0.977116" stop-color="#3DDCFF"/>
</linearGradient>
<linearGradient id="paint17_linear_1_1228" x1="823.197" y1="814.793" x2="845.298" y2="816.531" gradientUnits="userSpaceOnUse">
<stop stop-color="#6083FF"/>
<stop offset="1" stop-color="#0C1E5E" stop-opacity="0"/>
</linearGradient>
<linearGradient id="paint18_linear_1_1228" x1="828.429" y1="801.432" x2="810.261" y2="835.96" gradientUnits="userSpaceOnUse">
<stop offset="0.170794" stop-color="#3D3BA9"/>
<stop offset="0.537799" stop-color="#FF7BE2" stop-opacity="0.8"/>
<stop offset="0.791667" stop-color="white"/>
</linearGradient>
<linearGradient id="paint19_linear_1_1228" x1="810.473" y1="836.209" x2="843.014" y2="825.588" gradientUnits="userSpaceOnUse">
<stop stop-color="#3DDCFF"/>
<stop offset="0.427083" stop-color="#9D50FF" stop-opacity="0.5"/>
<stop offset="0.977116" stop-color="#3DDCFF"/>
</linearGradient>
<linearGradient id="paint20_linear_1_1228" x1="705.615" y1="669.664" x2="742.168" y2="672.299" gradientUnits="userSpaceOnUse">
<stop stop-color="#6083FF"/>
<stop offset="1" stop-color="#0C1E5E" stop-opacity="0"/>
</linearGradient>
<linearGradient id="paint21_linear_1_1228" x1="714.118" y1="647.53" x2="684.461" y2="704.798" gradientUnits="userSpaceOnUse">
<stop offset="0.170794" stop-color="#3D3BA9"/>
<stop offset="0.537799" stop-color="#FF7BE2" stop-opacity="0.8"/>
<stop offset="0.791667" stop-color="white"/>
</linearGradient>
<linearGradient id="paint22_linear_1_1228" x1="684.815" y1="705.208" x2="738.486" y2="687.303" gradientUnits="userSpaceOnUse">
<stop stop-color="#3DDCFF"/>
<stop offset="0.427083" stop-color="#9D50FF" stop-opacity="0.5"/>
<stop offset="0.977116" stop-color="#3DDCFF"/>
</linearGradient>
<linearGradient id="paint23_linear_1_1228" x1="850.502" y1="984.949" x2="874.176" y2="986.389" gradientUnits="userSpaceOnUse">
<stop stop-color="#6587FF"/>
<stop offset="1" stop-color="#D8E0FF" stop-opacity="0.9"/>
</linearGradient>
<linearGradient id="paint24_linear_1_1228" x1="855.82" y1="997.548" x2="873.491" y2="1028.8" gradientUnits="userSpaceOnUse">
<stop offset="0.135417" stop-color="white"/>
<stop offset="0.28125" stop-color="#89F8FF" stop-opacity="0.934673"/>
<stop offset="0.645833" stop-color="#71F6FF" stop-opacity="0.921354"/>
<stop offset="1" stop-color="#4A72FF" stop-opacity="0.9"/>
</linearGradient>
<linearGradient id="paint25_linear_1_1228" x1="822.581" y1="990.503" x2="838.62" y2="1017.47" gradientUnits="userSpaceOnUse">
<stop offset="0.170794" stop-color="#3D3BA9"/>
<stop offset="0.537799" stop-color="#FF7BE2" stop-opacity="0.8"/>
<stop offset="0.791667" stop-color="white"/>
</linearGradient>
<linearGradient id="paint26_linear_1_1228" x1="849.234" y1="970.345" x2="857.367" y2="988.813" gradientUnits="userSpaceOnUse">
<stop offset="0.135417" stop-color="white"/>
<stop offset="0.28125" stop-color="#89F8FF" stop-opacity="0.934673"/>
<stop offset="0.645833" stop-color="#71F6FF" stop-opacity="0.921354"/>
<stop offset="1" stop-color="#4A72FF" stop-opacity="0.9"/>
</linearGradient>
<linearGradient id="paint27_linear_1_1228" x1="846.113" y1="989.354" x2="839.2" y2="1009.11" gradientUnits="userSpaceOnUse">
<stop offset="0.135417" stop-color="white"/>
<stop offset="0.28125" stop-color="#89F8FF" stop-opacity="0.934673"/>
<stop offset="0.645833" stop-color="#71F6FF" stop-opacity="0.921354"/>
<stop offset="1" stop-color="#4A72FF" stop-opacity="0.9"/>
</linearGradient>
<linearGradient id="paint28_linear_1_1228" x1="874.894" y1="999.794" x2="882.206" y2="1013.86" gradientUnits="userSpaceOnUse">
<stop offset="0.135417" stop-color="white"/>
<stop offset="0.28125" stop-color="#89F8FF" stop-opacity="0.934673"/>
<stop offset="0.645833" stop-color="#71F6FF" stop-opacity="0.921354"/>
<stop offset="1" stop-color="#4A72FF" stop-opacity="0.9"/>
</linearGradient>
<linearGradient id="paint29_linear_1_1228" x1="839.182" y1="1045.3" x2="848.233" y2="996.102" gradientUnits="userSpaceOnUse">
<stop stop-color="#3DDCFF"/>
<stop offset="0.427083" stop-color="#9D50FF" stop-opacity="0"/>
<stop offset="0.977116" stop-color="#3DDCFF"/>
</linearGradient>
<linearGradient id="paint30_linear_1_1228" x1="861.162" y1="970.336" x2="857.631" y2="1040.37" gradientUnits="userSpaceOnUse">
<stop offset="0.170794" stop-color="#3D3BA9"/>
<stop offset="0.537799" stop-color="#FF7BE2" stop-opacity="0.8"/>
<stop offset="0.791667" stop-color="white"/>
</linearGradient>
<linearGradient id="paint31_linear_1_1228" x1="874.069" y1="983.594" x2="878.818" y2="1012.93" gradientUnits="userSpaceOnUse">
<stop offset="0.135417" stop-color="white"/>
<stop offset="0.28125" stop-color="#89F8FF" stop-opacity="0.934673"/>
<stop offset="0.645833" stop-color="#71F6FF" stop-opacity="0.921354"/>
<stop offset="1" stop-color="#4A72FF" stop-opacity="0.9"/>
</linearGradient>
<linearGradient id="paint32_linear_1_1228" x1="851.209" y1="985.888" x2="866.614" y2="972.729" gradientUnits="userSpaceOnUse">
<stop stop-color="#3E5ABE"/>
<stop offset="1" stop-color="#3E5ABE" stop-opacity="0"/>
</linearGradient>
<linearGradient id="paint33_linear_1_1228" x1="782.842" y1="666.894" x2="742.723" y2="609.799" gradientUnits="userSpaceOnUse">
<stop stop-color="white"/>
<stop offset="0.227296" stop-color="#47FFDE" stop-opacity="0.8"/>
<stop offset="1" stop-color="#6D61FF" stop-opacity="0.5"/>
</linearGradient>
<linearGradient id="paint34_linear_1_1228" x1="782.844" y1="666.897" x2="742.724" y2="609.803" gradientUnits="userSpaceOnUse">
<stop stop-color="white"/>
<stop offset="0.227296" stop-color="#47FFDE" stop-opacity="0.8"/>
<stop offset="1" stop-color="#6D61FF" stop-opacity="0.5"/>
</linearGradient>
<linearGradient id="paint35_linear_1_1228" x1="767.683" y1="569.286" x2="787.676" y2="609.818" gradientUnits="userSpaceOnUse">
<stop stop-color="white"/>
<stop offset="0.227296" stop-color="#47FFDE" stop-opacity="0.8"/>
<stop offset="1" stop-color="#6D61FF" stop-opacity="0.5"/>
</linearGradient>
<linearGradient id="paint36_linear_1_1228" x1="823.34" y1="612.126" x2="719.082" y2="670.143" gradientUnits="userSpaceOnUse">
<stop stop-color="#6D61FF"/>
<stop offset="1" stop-color="#47FFDE"/>
</linearGradient>
<radialGradient id="paint37_radial_1_1228" cx="0" cy="0" r="1" gradientUnits="userSpaceOnUse" gradientTransform="translate(803.472 623.181) rotate(-119.095) scale(95.5037 54.6676)">
<stop stop-color="#6D61FF"/>
<stop offset="1" stop-color="#47FFDE"/>
</radialGradient>
<linearGradient id="paint38_linear_1_1228" x1="782.843" y1="666.895" x2="742.723" y2="609.801" gradientUnits="userSpaceOnUse">
<stop stop-color="white"/>
<stop offset="0.227296" stop-color="#47FFDE" stop-opacity="0.8"/>
<stop offset="1" stop-color="#6D61FF" stop-opacity="0.5"/>
</linearGradient>
<linearGradient id="paint39_linear_1_1228" x1="767.485" y1="664.053" x2="850.326" y2="706.737" gradientUnits="userSpaceOnUse">
<stop offset="0.0729167" stop-color="#4B86FA" stop-opacity="0.8"/>
<stop offset="0.791667" stop-color="#FCA6EF" stop-opacity="0.8"/>
<stop offset="1" stop-color="white"/>
</linearGradient>
<linearGradient id="paint40_linear_1_1228" x1="784.169" y1="664.417" x2="732.875" y2="662.139" gradientUnits="userSpaceOnUse">
<stop stop-color="#7BFFE7" stop-opacity="0.8"/>
<stop offset="1" stop-color="#322994" stop-opacity="0.5"/>
</linearGradient>
<linearGradient id="paint41_linear_1_1228" x1="758.254" y1="617.849" x2="724.216" y2="611.956" gradientUnits="userSpaceOnUse">
<stop stop-color="#7BFFE7" stop-opacity="0.9"/>
<stop offset="1" stop-color="#322994" stop-opacity="0.5"/>
</linearGradient>
<linearGradient id="paint42_linear_1_1228" x1="830.408" y1="682.006" x2="768.727" y2="659.379" gradientUnits="userSpaceOnUse">
<stop stop-color="white"/>
<stop offset="0.586705" stop-color="#47FFDE" stop-opacity="0.9"/>
<stop offset="1" stop-color="#6D61FF" stop-opacity="0.5"/>
</linearGradient>
<linearGradient id="paint43_linear_1_1228" x1="729.761" y1="604.4" x2="760.928" y2="622.394" gradientUnits="userSpaceOnUse">
<stop stop-color="#0A3892"/>
<stop offset="0.536458" stop-color="#29B2ED" stop-opacity="0.8"/>
<stop offset="0.967948" stop-color="white"/>
</linearGradient>
<linearGradient id="paint44_linear_1_1228" x1="750.654" y1="622.452" x2="748.762" y2="589.806" gradientUnits="userSpaceOnUse">
<stop stop-color="#FF439D"/>
<stop offset="1" stop-color="#FF43D6" stop-opacity="0"/>
</linearGradient>
<linearGradient id="paint45_linear_1_1228" x1="910.434" y1="604.725" x2="871.987" y2="567.798" gradientUnits="userSpaceOnUse">
<stop offset="0.0729167" stop-color="#4B86FA" stop-opacity="0.8"/>
<stop offset="0.791667" stop-color="#FCA6EF" stop-opacity="0.8"/>
<stop offset="1" stop-color="white"/>
</linearGradient>
<linearGradient id="paint46_linear_1_1228" x1="618.226" y1="592.365" x2="690.378" y2="440.023" gradientUnits="userSpaceOnUse">
<stop offset="0.0729167" stop-color="#4B86FA" stop-opacity="0.8"/>
<stop offset="0.791667" stop-color="#FCA6EF" stop-opacity="0.8"/>
<stop offset="1" stop-color="white"/>
</linearGradient>
</defs>
</svg>
