<svg width="26" height="18" viewBox="0 0 26 18" fill="none" xmlns="http://www.w3.org/2000/svg">
<path fill-rule="evenodd" clip-rule="evenodd" d="M24.3005 1.37807C24.6996 1.77717 24.9872 2.27386 25.1346 2.81868C25.9835 6.23572 25.7873 11.6324 25.1511 15.1813C25.0037 15.7261 24.7161 16.2228 24.317 16.6219C23.9179 17.021 23.4212 17.3086 22.8764 17.456C20.8819 18 12.8544 18 12.8544 18C12.8544 18 4.82691 18 2.8324 17.456C2.28759 17.3086 1.79089 17.021 1.39179 16.6219C0.992691 16.2228 0.705107 15.7261 0.557679 15.1813C-0.296167 11.7791 -0.0620999 6.37912 0.541197 2.83517C0.688622 2.29035 0.976206 1.79365 1.37531 1.39455C1.77441 0.99545 2.2711 0.707864 2.81592 0.560444C4.81043 0.0164795 12.8379 0 12.8379 0C12.8379 0 20.8654 0 22.8599 0.543954C23.4047 0.691384 23.9014 0.97897 24.3005 1.37807ZM16.9423 8.99999L10.283 12.8571V5.14285L16.9423 8.99999Z" fill="white"/>
</svg>
