<svg width="24" height="20" viewBox="0 0 24 20" fill="none" xmlns="http://www.w3.org/2000/svg">
<path fill-rule="evenodd" clip-rule="evenodd" d="M24 2.30865C23.1177 2.70062 22.1681 2.9646 21.1722 3.08379C22.1889 2.47423 22.9697 1.5095 23.3368 0.359974C22.3865 0.924736 21.3314 1.33351 20.2107 1.5551C19.3123 0.59836 18.0316 0 16.6165 0C13.8975 0 11.6928 2.20465 11.6928 4.92367C11.6928 5.30924 11.7368 5.68522 11.8208 6.046C7.72829 5.84121 4.10053 3.88054 1.67189 0.901539C1.24792 1.62869 1.00553 2.47424 1.00553 3.37658C1.00553 5.08447 1.87347 6.59157 3.19579 7.47471C2.38784 7.44911 1.62949 7.22752 0.964734 6.85875V6.92034C0.964734 9.30658 2.66302 11.296 4.91407 11.7496C4.5013 11.8616 4.06613 11.9224 3.61736 11.9224C3.29978 11.9224 2.991 11.8912 2.69022 11.8336C3.31658 13.7895 5.13566 15.2134 7.28991 15.2534C5.60523 16.5733 3.48217 17.3612 1.17512 17.3612C0.776747 17.3612 0.384774 17.338 0 17.2916C2.17905 18.6884 4.76688 19.5043 7.5475 19.5043C16.6037 19.5043 21.5562 12.0016 21.5562 5.49563C21.5562 5.28204 21.5522 5.06927 21.5418 4.85888C22.5049 4.16293 23.34 3.29578 24 2.30865Z" fill="white"/>
</svg>
