<svg width="18" height="18" viewBox="0 0 18 18" fill="none" xmlns="http://www.w3.org/2000/svg">
<path d="M2.67962 1.82038L3.29289 1.20711C3.68342 0.816583 4.31658 0.816582 4.70711 1.20711L7.29289 3.79289C7.68342 4.18342 7.68342 4.81658 7.29289 5.20711L5.50048 6.99952C5.2016 7.2984 5.1275 7.755 5.31653 8.13307C6.40929 10.3186 8.18142 12.0907 10.3669 13.1835C10.745 13.3725 11.2016 13.2984 11.5005 12.9995L13.2929 11.2071C13.6834 10.8166 14.3166 10.8166 14.7071 11.2071L17.2929 13.7929C17.6834 14.1834 17.6834 14.8166 17.2929 15.2071L16.6796 15.8204C14.5683 17.9317 11.2257 18.1693 8.83698 16.3777L7.62857 15.4714C5.88504 14.1638 4.33622 12.615 3.02857 10.8714L2.12226 9.66302C0.330722 7.2743 0.568269 3.93173 2.67962 1.82038Z" fill="white"/>
</svg>
